<svg xmlns="http://www.w3.org/2000/svg" width="128" height="128" viewBox="0 0 128 128">
  <defs>
    <linearGradient id="bg" x1="0" y1="0" x2="1" y2="1">
      <stop offset="0" stop-color="#f6eddc"/>
      <stop offset="1" stop-color="#d8c39b"/>
    </linearGradient>
  </defs>
  <rect x="6" y="6" width="116" height="116" rx="28" fill="url(#bg)"/>
  <rect x="6" y="6" width="116" height="116" rx="28" fill="none" stroke="#3f2f1b" stroke-width="4"/>
  <ellipse cx="64" cy="98" rx="26" ry="10" fill="#000000" opacity="0.12"/>
  <path d="M41 40l-9 16 15-4z" fill="#356d4f"/>
  <path d="M87 40l9 16-15-4z" fill="#356d4f"/>
  <path d="M64 30c-20 0-34 15-34 37 0 23 12 36 34 36s34-13 34-36c0-22-14-37-34-37z" fill="#4fa57a"/>
  <path d="M64 37c-16 0-27 12-27 31 0 20 10 29 27 29s27-9 27-29c0-19-11-31-27-31z" fill="#5dc48f"/>
  <ellipse cx="51" cy="64" rx="8" ry="11" fill="#ffffff"/>
  <ellipse cx="77" cy="64" rx="8" ry="11" fill="#ffffff"/>
  <ellipse cx="53" cy="67" rx="3.2" ry="5" fill="#1f2d24"/>
  <ellipse cx="75" cy="67" rx="3.2" ry="5" fill="#1f2d24"/>
  <path d="M58 81c3 4 9 4 12 0" fill="none" stroke="#1f2d24" stroke-linecap="round" stroke-width="4"/>
  <ellipse cx="45" cy="78" rx="5" ry="3" fill="#e7a0b0" opacity="0.85"/>
  <ellipse cx="83" cy="78" rx="5" ry="3" fill="#e7a0b0" opacity="0.85"/>
</svg>
