<svg width="96" height="96" viewBox="0 0 96 96" fill="none" xmlns="http://www.w3.org/2000/svg">
  <ellipse cx="48" cy="77" rx="21" ry="8" fill="#113344" fill-opacity="0.18"/>
  <path d="M23 47C23 27.1177 34.1929 16 48 16C61.8071 16 73 27.1177 73 47C73 67.5 63.5 81 48 81C32.5 81 23 67.5 23 47Z" fill="#5AD2A0"/>
  <path d="M36 19L28 30L40 31L36 19Z" fill="#49B889"/>
  <path d="M60 19L56 31L68 30L60 19Z" fill="#49B889"/>
  <ellipse cx="39.5" cy="45" rx="5.5" ry="8" fill="white"/>
  <ellipse cx="56.5" cy="45" rx="5.5" ry="8" fill="white"/>
  <ellipse cx="40.5" cy="48" rx="2.5" ry="4" fill="#173042"/>
  <ellipse cx="55.5" cy="48" rx="2.5" ry="4" fill="#173042"/>
  <path d="M44 58C45.5 60.5 50.5 60.5 52 58" stroke="#173042" stroke-width="3" stroke-linecap="round"/>
  <ellipse cx="33" cy="56" rx="4" ry="2.5" fill="#F6A7B8" fill-opacity="0.8"/>
  <ellipse cx="63" cy="56" rx="4" ry="2.5" fill="#F6A7B8" fill-opacity="0.8"/>
</svg>
